<svg width="14" height="15" viewBox="0 0 14 15" fill="none" xmlns="http://www.w3.org/2000/svg">
<path d="M13.4189 12.4261L1.4989 0.513832H0.996958L0.894472 0.774095C0.62397 1.46104 0.50839 2.16364 0.560275 2.80585C0.619424 3.5379 0.897698 4.17167 1.36508 4.63875L6.37896 9.64939L7.0403 8.9885L11.6756 14.1683C12.1367 14.6291 12.9304 14.6565 13.4189 14.1683C13.8995 13.688 13.8995 12.9065 13.4189 12.4261Z" fill="#689AE3"/>
<path d="M3.58678 8.87854L0.360456 11.9622C-0.120152 12.4425 -0.120152 13.2241 0.360456 13.7044C0.817015 14.1606 1.60684 14.2009 2.10371 13.7044L5.18997 10.4805L3.58678 8.87854Z" fill="#689AE3"/>
<path d="M11.1914 4.6222L13.4189 2.39613L14 2.97688L11.0945 5.88046C10.7391 6.23567 10.2671 6.44783 9.76555 6.47773C9.6385 6.48531 9.51347 6.51407 9.39458 6.56188L7.50718 4.6757C7.55495 4.55688 7.58376 4.43197 7.59136 4.30496C7.62136 3.80372 7.8336 3.33207 8.18903 2.97685L11.0945 0.0732422L11.6756 0.653937L9.44806 2.88001L10.0292 3.46073L12.2567 1.23466L12.8378 1.81538L10.6102 4.04148L11.1914 4.6222Z" fill="#689AE3"/>
</svg>
