<svg width="14" height="14" viewBox="0 0 14 14" fill="none" xmlns="http://www.w3.org/2000/svg">
<path d="M6.45312 10.1719C6.45312 10.4739 6.69794 10.7188 7 10.7188C7.30206 10.7188 7.54688 10.4739 7.54688 10.1719V5.98828C7.54688 5.68625 7.30206 5.44141 7 5.44141C6.69794 5.44141 6.45312 5.68625 6.45312 5.98828V10.1719Z" fill="white" fill-opacity="0.5"/>
<path d="M6.31641 3.96484C6.31641 3.58731 6.62244 3.28125 7 3.28125C7.37756 3.28125 7.68359 3.58731 7.68359 3.96484C7.68359 4.34238 7.37756 4.64844 7 4.64844C6.62244 4.64844 6.31641 4.34238 6.31641 3.96484Z" fill="white" fill-opacity="0.5"/>
<path fill-rule="evenodd" clip-rule="evenodd" d="M0 10.7188C0 12.528 1.47198 14 3.28125 14H10.7188C12.528 14 14 12.528 14 10.7188V3.28125C14 1.47195 12.528 0 10.7188 0H3.28125C1.47198 0 0 1.47195 0 3.28125V10.7188ZM1.09375 3.28125C1.09375 2.07507 2.07507 1.09375 3.28125 1.09375H10.7188C11.9249 1.09375 12.9062 2.07507 12.9062 3.28125V10.7188C12.9062 11.9249 11.9249 12.9062 10.7188 12.9062H3.28125C2.07507 12.9062 1.09375 11.9249 1.09375 10.7188V3.28125Z" fill="white" fill-opacity="0.5"/>
</svg>
