<svg width="17" height="14" viewBox="0 0 17 14" fill="none" xmlns="http://www.w3.org/2000/svg"><path transform="rotate(-180 4.227 10.88)" fill="#689AE3" d="M4.227 10.881H7.727V12.381H4.227z"/><path transform="rotate(-180 16.556 10.88)" fill="#689AE3" d="M16.556 10.881H24.556V12.381H16.556z"/><path fill-rule="evenodd" clip-rule="evenodd" d="M6.46233 6.99986C4.7151 6.99986 3.29869 8.41627 3.29869 10.1635C3.29869 11.9107 4.7151 13.3271 6.46233 13.3271C8.20957 13.3271 9.62598 11.9107 9.62598 10.1635C9.62598 8.41627 8.20957 6.99986 6.46233 6.99986ZM6.46233 8.26532C5.29751 8.26532 4.56415 8.99868 4.56415 10.1635C4.56415 11.3283 5.29751 12.0617 6.46233 12.0617C7.62715 12.0617 8.36052 11.3283 8.36052 10.1635C8.36052 8.99868 7.62715 8.26532 6.46233 8.26532Z" fill="#689AE3"/><path transform="matrix(1 0 0 -1 13.056 3.88)" fill="#689AE3" d="M0 0H3.5V1.5H0z"/><path transform="matrix(1 0 0 -1 .727 3.88)" fill="#689AE3" d="M0 0H8V1.5H0z"/><path fill-rule="evenodd" clip-rule="evenodd" d="M10.8199 -0.000138283C12.5671 -0.000138283 13.9835 1.41627 13.9835 3.16351C13.9835 4.91074 12.5671 6.32715 10.8199 6.32715C9.07266 6.32715 7.65625 4.91074 7.65625 3.16351C7.65625 1.41627 9.07266 -0.000138283 10.8199 -0.000138283ZM10.8199 1.26532C11.9847 1.26532 12.7181 1.99868 12.7181 3.16351C12.7181 4.32833 11.9847 5.06169 10.8199 5.06169C9.65507 5.06169 8.92171 4.32833 8.92171 3.16351C8.92171 1.99868 9.65507 1.26532 10.8199 1.26532Z" fill="#689AE3"/></svg>