<svg width="14" height="14" viewBox="0 0 14 14" fill="none" xmlns="http://www.w3.org/2000/svg"><path fill-rule="evenodd" clip-rule="evenodd" d="M1.55628 2.33346C1.55628 2.7623 1.90579 3.11179 2.33526 3.11179H14V11.6741C14 12.9626 12.9531 14.0033 11.6628 14L2.33329 13.9764C1.04372 13.9731 0 12.9296 0 11.6431V2.44422C0.000583071 2.41978 0.000389438 2.39522 0.000195081 2.37057C9.76315e-05 2.35821 0 2.34583 0 2.33342C0 1.04334 1.04379 0 2.33759 0H12.431V1.55513H2.33759C1.90342 1.55513 1.55628 1.90211 1.55628 2.33346ZM11.6667 12.4449C12.0969 12.446 12.4437 12.1013 12.4437 11.6741V10.9103H10.8775C9.58929 10.9103 8.54057 9.86428 8.54057 8.57576C8.54057 7.28764 9.58739 6.24124 10.8775 6.24124H12.4437V4.66688H2.33522C2.06209 4.66688 1.7999 4.61994 1.55624 4.5337V11.6431C1.55624 12.0716 1.90492 12.4202 2.33719 12.4213L11.6667 12.4449ZM12.4437 7.79633H10.8775C10.4471 7.79633 10.0969 8.14637 10.0969 8.57576C10.0969 9.00478 10.4482 9.35518 10.8775 9.35518H12.4437V7.79633Z" fill="#689AE3"/></svg>