<svg width="50" height="50" viewBox="0 0 50 50" fill="none" xmlns="http://www.w3.org/2000/svg"><mask id="mask0" maskUnits="userSpaceOnUse" x="0" y="0" width="50" height="50"><rect width="50" height="50" rx="5" fill="#C4C4C4"/></mask><g mask="url(#mask0)"><rect width="50" height="50" rx="5" fill="#F8F8F8"/><path d="M21.772 13.7578H13.831C13.3462 13.7578 12.9531 13.3643 12.9531 12.8789C12.9531 12.3935 13.3462 12 13.831 12H21.772C22.2568 12 22.6498 12.3935 22.6498 12.8789C22.6498 13.3643 22.2568 13.7578 21.772 13.7578Z" fill="#689AE3"/><path d="M36.4265 33.0869C36.4265 33.5755 36.0309 33.9716 35.5428 33.9716C35.0548 33.9716 34.6592 33.5755 34.6592 33.0869C34.6592 32.5982 35.0548 32.2021 35.5428 32.2021C36.0309 32.2021 36.4265 32.5982 36.4265 33.0869Z" fill="#689AE3"/><path fill-rule="evenodd" clip-rule="evenodd" d="M39.9368 29.5337C39.9368 30.0028 39.5694 30.385 39.1071 30.4101C39.6674 31.1564 40 32.0833 39.9999 33.0866C39.9999 35.5476 38.0003 37.5497 35.5424 37.5497C33.3849 37.5497 31.5809 36.0069 31.172 33.9655H20.4336C20.0247 36.0069 18.2207 37.5497 16.0632 37.5497C13.9057 37.5497 12.1018 36.0069 11.6929 33.9655H10.9333C10.4485 33.9655 10.0555 33.572 10.0555 33.0866V30.3504C10.0555 28.3398 10.9323 26.5306 12.3229 25.2853C11.0121 25.1013 10 23.9718 10 22.6095C10 21.1194 11.2109 19.907 12.6992 19.9071H20.6086C22.5899 19.9071 24.2019 21.521 24.2019 23.5048C24.2019 24.3403 23.6326 25.0449 22.8621 25.2509L23.8181 28.4854C23.8239 28.5051 23.8422 28.5187 23.8626 28.5187H27.4087C27.4343 28.5187 27.4551 28.4979 27.4551 28.4722V23.4707C27.4551 22.259 27.8948 21.1487 28.6216 20.2892H28.2318C27.747 20.2892 27.3539 19.8956 27.3539 19.4103V18.3157H25.1961C24.7113 18.3157 24.3182 17.9222 24.3182 17.4368C24.3182 16.9514 24.7113 16.5579 25.1961 16.5579H27.3539V15.4634C27.3539 14.978 27.747 14.5845 28.2318 14.5845H32.2815C33.8524 14.5845 35.1304 15.864 35.1304 17.4368C35.1304 18.6077 34.4219 19.6156 33.4117 20.0545L34.4586 25.0234H35.315C37.9067 25.0234 39.9368 27.0045 39.9368 29.5337ZM36.0612 28.6548H38.0374C37.6637 27.555 36.6007 26.7812 35.3151 26.7812H34.6245V28.7192C34.9209 28.6568 35.2278 28.6235 35.5424 28.6235C35.718 28.6235 35.8909 28.6349 36.0612 28.6548ZM32.2815 16.3422H29.1096V18.5313H32.2815C32.8843 18.5313 33.3747 18.0403 33.3747 17.4368C33.3747 16.8332 32.8843 16.3422 32.2815 16.3422ZM27.4088 30.2765H23.8627C23.0702 30.2765 22.3596 29.7451 22.1348 28.9842L21.0496 25.3121H16.8433C14.9231 25.3121 13.2513 26.3949 12.4033 27.9823C13.4299 27.1684 14.731 26.695 16.1804 26.695C19.4305 26.695 22.0346 29.0543 22.4445 32.2077H31.1721C31.3911 31.1146 32.0097 30.1646 32.8688 29.5178V25.9938L31.6848 20.3741C30.2706 20.6924 29.2108 21.96 29.2108 23.4707V28.4722C29.2108 29.4671 28.4025 30.2765 27.4088 30.2765ZM13.0462 29.7756C12.4353 30.4291 12.0359 31.2726 11.8825 32.2076H20.6662C20.2735 30.0439 18.4444 28.4527 16.1802 28.4527C14.9565 28.4527 13.8435 28.9225 13.0462 29.7756ZM11.7556 22.6095C11.7556 23.1305 12.1789 23.5543 12.6992 23.5543C12.7043 23.5543 20.5506 23.5543 21.5995 23.5542H22.2731C22.3809 23.5647 22.4387 23.5408 22.4463 23.5047C22.4463 22.4901 21.6219 21.6648 20.6086 21.6648H12.6992C12.1789 21.6648 11.7556 22.0886 11.7556 22.6095ZM13.5085 33.9655C13.8737 35.0269 14.8806 35.7918 16.0632 35.7918C17.2458 35.7918 18.2527 35.0269 18.618 33.9655H13.5085ZM32.8405 33.0866C32.8405 34.5782 34.0526 35.7918 35.5424 35.7918C37.0322 35.7918 38.2444 34.5782 38.2444 33.0866C38.2444 31.5949 37.0323 30.3813 35.5424 30.3813C34.0526 30.3813 32.8405 31.5949 32.8405 33.0866Z" fill="#689AE3"/><path d="M10.915 17.3594H18.7881C19.2729 17.3594 19.6659 16.9659 19.6659 16.4805C19.6659 15.9951 19.2729 15.6016 18.7881 15.6016H10.915C10.4302 15.6016 10.0371 15.9951 10.0371 16.4805C10.0371 16.9659 10.4302 17.3594 10.915 17.3594Z" fill="#689AE3"/></g></svg>