<svg width="10" height="10" viewBox="0 0 10 10" fill="none" xmlns="http://www.w3.org/2000/svg"><path d="M9.45238 5.78108C9.59721 5.78196 9.73457 5.84172 9.83748 5.94515C9.94138 6.04852 10 6.18843 10 6.33443V9.0629C10 9.36434 9.75235 9.60811 9.45105 9.60811H8.98805C8.68675 9.60811 8.43861 9.36434 8.43861 9.0629V8.61986C7.50179 9.49912 6.2683 10 4.99626 10C2.24057 10 0 7.75703 0 5C0 2.24297 2.24203 0 4.99773 0C7.06049 0 8.93846 1.29587 9.6709 3.22439C9.82382 3.62694 9.6209 4.07901 9.21846 4.23185C9.12935 4.26584 9.0361 4.28309 8.94138 4.28309C8.61926 4.28309 8.32585 4.08056 8.21138 3.77928C7.70789 2.45307 6.41643 1.56201 4.9978 1.56201C3.10301 1.56201 1.56154 3.10426 1.56154 5C1.56154 6.89574 3.10326 8.43799 4.99797 8.43799C5.95309 8.43799 6.86 8.04081 7.51163 7.34269L6.71788 7.34253C6.57243 7.34253 6.43634 7.28551 6.33293 7.18197C6.22951 7.07842 6.17464 6.94129 6.17464 6.79577V6.33256C6.17464 6.0312 6.41553 5.78108 6.71683 5.78108H9.45238Z" fill="#689AE3"/></svg>