<svg width="114" height="63" viewBox="0 0 114 63" fill="none" xmlns="http://www.w3.org/2000/svg"><path fill="#689AE3" d="M0 30H8V61H0z"/><path fill="#689AE3" d="M13 14H21V61H13z"/><path d="M52.1401 38V27.4385C52.1401 26.3789 52.0775 25.5529 51.9521 24.9604C51.8268 24.368 51.6331 23.9692 51.3711 23.7642C51.1204 23.5477 50.6989 23.4395 50.1064 23.4395C49.4342 23.4395 48.7222 23.6901 47.9702 24.1914C47.2183 24.6927 46.5176 25.3079 45.8682 26.0371V38H41.459V27.4385C41.459 26.2764 41.4077 25.439 41.3052 24.9263C41.2026 24.4022 41.0203 24.0262 40.7583 23.7983C40.4963 23.5591 40.0519 23.4395 39.4253 23.4395C38.8784 23.4395 38.2461 23.6502 37.5283 24.0718C36.8105 24.4819 36.0301 25.137 35.187 26.0371V38H30.7778V20.0728H35.187V22.397C36.0073 21.5083 36.8675 20.8133 37.7676 20.312C38.6676 19.8107 39.6646 19.5601 40.7583 19.5601C42.2508 19.5601 43.3503 19.8164 44.0566 20.3291C44.7744 20.8418 45.2643 21.5994 45.5264 22.6021C46.5518 21.5767 47.5088 20.8133 48.3975 20.312C49.2975 19.8107 50.3457 19.5601 51.542 19.5601C53.2852 19.5601 54.5555 20.0557 55.353 21.0469C56.1506 22.0381 56.5493 23.7015 56.5493 26.0371V38H52.1401ZM76.1855 35.4365C75.502 36.4505 74.6019 37.2196 73.4854 37.7437C72.3688 38.2677 70.9561 38.5298 69.2471 38.5298C66.3532 38.5298 64.1657 37.7437 62.6846 36.1714C61.2035 34.5877 60.4629 32.2464 60.4629 29.1475C60.4629 26.1283 61.1807 23.7756 62.6162 22.0894C64.0518 20.4032 66.2051 19.5601 69.0762 19.5601C70.6143 19.5601 71.9814 19.8107 73.1777 20.312C74.3854 20.8133 75.3026 21.5881 75.9292 22.6362L72.6479 24.9775C72.2492 24.4421 71.7821 24.049 71.2466 23.7983C70.7111 23.5363 70.0218 23.4053 69.1787 23.4053C67.6748 23.4053 66.6038 23.8667 65.9658 24.7896C65.3278 25.7124 65.0088 27.1423 65.0088 29.0791C65.0088 31.016 65.3335 32.4344 65.9829 33.3345C66.6437 34.2231 67.766 34.6675 69.3496 34.6675C70.0332 34.6675 70.6598 34.5706 71.2295 34.377C71.7992 34.1833 72.3403 33.756 72.853 33.0952L76.1855 35.4365ZM95.3091 37.6582C95.3091 40.0508 94.5742 41.8281 93.1045 42.9902C91.6348 44.1637 89.2764 44.7505 86.0293 44.7505C83.3519 44.7505 81.0106 44.2378 79.0054 43.2124L80.3042 39.6064C82.1613 40.4723 84.0697 40.9053 86.0293 40.9053C87.8522 40.9053 89.1169 40.6432 89.8232 40.1191C90.541 39.5951 90.8999 38.7121 90.8999 37.4702V36.0005C89.4416 37.3335 87.6813 38 85.6191 38C83.4316 38 81.7113 37.2139 80.458 35.6416C79.2048 34.0693 78.5781 31.8078 78.5781 28.8569C78.5781 27.0112 78.8687 25.3877 79.4497 23.9863C80.0422 22.5736 80.9023 21.4855 82.0303 20.7222C83.1696 19.9474 84.5425 19.5601 86.1489 19.5601C87.0946 19.5601 88.0402 19.7708 88.9858 20.1924C89.9315 20.6025 90.7233 21.1266 91.3613 21.7646L91.9424 20.0728H95.3091V37.6582ZM90.8999 25.0459C89.6922 23.9749 88.3763 23.4395 86.9521 23.4395C85.8812 23.4395 84.9754 23.9294 84.2349 24.9092C83.4943 25.889 83.124 27.1821 83.124 28.7886C83.124 30.6115 83.4487 31.9559 84.0981 32.8218C84.759 33.6877 85.6134 34.1206 86.6616 34.1206C88.12 34.1206 89.5327 33.5339 90.8999 32.3604V25.0459Z" fill="#151515"/><path d="M34.905 46.733C35.331 46.835 35.652 47.018 35.868 47.282C36.09 47.54 36.201 47.873 36.201 48.281C36.201 48.827 36 49.25 35.598 49.55C35.202 49.85 34.623 50 33.861 50H30.981V43.7H33.69C34.38 43.7 34.917 43.841 35.301 44.123C35.691 44.399 35.886 44.798 35.886 45.32C35.886 45.662 35.799 45.953 35.625 46.193C35.457 46.433 35.217 46.613 34.905 46.733ZM31.872 46.472H33.627C34.065 46.472 34.398 46.385 34.626 46.211C34.86 46.037 34.977 45.782 34.977 45.446C34.977 45.11 34.86 44.855 34.626 44.681C34.392 44.501 34.059 44.411 33.627 44.411H31.872V46.472ZM33.843 49.289C34.809 49.289 35.292 48.929 35.292 48.209C35.292 47.849 35.169 47.585 34.923 47.417C34.683 47.243 34.323 47.156 33.843 47.156H31.872V49.289H33.843ZM41.3996 48.425H38.0516L37.3586 50H36.4316L39.2846 43.7H40.1756L43.0376 50H42.0926L41.3996 48.425ZM41.0846 47.705L39.7256 44.618L38.3666 47.705H41.0846ZM51.6179 43.7V50H43.7249V43.7H44.6159V49.217H47.2349V43.7H48.1169V49.217H50.7359V43.7H51.6179ZM59.3165 44.483H56.0765L56.0855 50H55.1945V43.7H59.3255L59.3165 44.483ZM59.9976 43.7H60.8886V48.56L64.6146 43.7H65.4426V50H64.5606V45.149L60.8256 50H59.9976V43.7ZM72.9307 49.217V51.377H72.0937V50H66.9097L66.9007 51.377H66.0637L66.0727 49.217H66.3787C66.7747 49.193 67.0537 48.881 67.2157 48.281C67.3777 47.675 67.4767 46.823 67.5127 45.725L67.5757 43.7H72.0037V49.217H72.9307ZM68.3047 45.806C68.2747 46.694 68.2027 47.429 68.0887 48.011C67.9807 48.593 67.8037 48.995 67.5577 49.217H71.1127V44.483H68.3497L68.3047 45.806ZM36.408 54.7V61H35.526V55.483H31.872V61H30.981V54.7H36.408ZM40.8076 61.072C40.1716 61.072 39.5986 60.934 39.0886 60.658C38.5786 60.376 38.1766 59.989 37.8826 59.497C37.5946 59.005 37.4506 58.456 37.4506 57.85C37.4506 57.244 37.5946 56.695 37.8826 56.203C38.1766 55.711 38.5786 55.327 39.0886 55.051C39.5986 54.769 40.1716 54.628 40.8076 54.628C41.4376 54.628 42.0076 54.769 42.5176 55.051C43.0276 55.327 43.4266 55.711 43.7146 56.203C44.0026 56.689 44.1466 57.238 44.1466 57.85C44.1466 58.462 44.0026 59.014 43.7146 59.506C43.4266 59.992 43.0276 60.376 42.5176 60.658C42.0076 60.934 41.4376 61.072 40.8076 61.072ZM40.8076 60.271C41.2696 60.271 41.6836 60.166 42.0496 59.956C42.4216 59.746 42.7126 59.458 42.9226 59.092C43.1386 58.72 43.2466 58.306 43.2466 57.85C43.2466 57.394 43.1386 56.983 42.9226 56.617C42.7126 56.245 42.4216 55.954 42.0496 55.744C41.6836 55.534 41.2696 55.429 40.8076 55.429C40.3456 55.429 39.9256 55.534 39.5476 55.744C39.1756 55.954 38.8816 56.245 38.6656 56.617C38.4556 56.983 38.3506 57.394 38.3506 57.85C38.3506 58.306 38.4556 58.72 38.6656 59.092C38.8816 59.458 39.1756 59.746 39.5476 59.956C39.9256 60.166 40.3456 60.271 40.8076 60.271ZM53.0595 61L53.0505 56.41L50.7735 60.235H50.3595L48.0825 56.437V61H47.2185V54.7H47.9565L50.5845 59.128L53.1765 54.7H53.9145L53.9235 61H53.0595ZM58.3195 61.072C57.6835 61.072 57.1105 60.934 56.6005 60.658C56.0905 60.376 55.6885 59.989 55.3945 59.497C55.1065 59.005 54.9625 58.456 54.9625 57.85C54.9625 57.244 55.1065 56.695 55.3945 56.203C55.6885 55.711 56.0905 55.327 56.6005 55.051C57.1105 54.769 57.6835 54.628 58.3195 54.628C58.9495 54.628 59.5195 54.769 60.0295 55.051C60.5395 55.327 60.9385 55.711 61.2265 56.203C61.5145 56.689 61.6585 57.238 61.6585 57.85C61.6585 58.462 61.5145 59.014 61.2265 59.506C60.9385 59.992 60.5395 60.376 60.0295 60.658C59.5195 60.934 58.9495 61.072 58.3195 61.072ZM58.3195 60.271C58.7815 60.271 59.1955 60.166 59.5615 59.956C59.9335 59.746 60.2245 59.458 60.4345 59.092C60.6505 58.72 60.7585 58.306 60.7585 57.85C60.7585 57.394 60.6505 56.983 60.4345 56.617C60.2245 56.245 59.9335 55.954 59.5615 55.744C59.1955 55.534 58.7815 55.429 58.3195 55.429C57.8575 55.429 57.4375 55.534 57.0595 55.744C56.6875 55.954 56.3935 56.245 56.1775 56.617C55.9675 56.983 55.8625 57.394 55.8625 57.85C55.8625 58.306 55.9675 58.72 56.1775 59.092C56.3935 59.458 56.6875 59.746 57.0595 59.956C57.4375 60.166 57.8575 60.271 58.3195 60.271ZM65.5304 61.072C64.9004 61.072 64.3304 60.934 63.8204 60.658C63.3164 60.376 62.9204 59.992 62.6324 59.506C62.3444 59.014 62.2004 58.462 62.2004 57.85C62.2004 57.238 62.3444 56.689 62.6324 56.203C62.9204 55.711 63.3194 55.327 63.8294 55.051C64.3394 54.769 64.9094 54.628 65.5394 54.628C66.0314 54.628 66.4814 54.712 66.8894 54.88C67.2974 55.042 67.6454 55.285 67.9334 55.609L67.3484 56.176C66.8744 55.678 66.2834 55.429 65.5754 55.429C65.1074 55.429 64.6844 55.534 64.3064 55.744C63.9284 55.954 63.6314 56.245 63.4154 56.617C63.2054 56.983 63.1004 57.394 63.1004 57.85C63.1004 58.306 63.2054 58.72 63.4154 59.092C63.6314 59.458 63.9284 59.746 64.3064 59.956C64.6844 60.166 65.1074 60.271 65.5754 60.271C66.2774 60.271 66.8684 60.019 67.3484 59.515L67.9334 60.082C67.6454 60.406 67.2944 60.652 66.8804 60.82C66.4724 60.988 66.0224 61.072 65.5304 61.072ZM70.9694 58.228H69.6554V61H68.7734V54.7H69.6554V57.436H70.9874L72.9674 54.7H73.9304L71.6804 57.751L74.0384 61H73.0124L70.9694 58.228ZM78.4849 57.733C78.9109 57.835 79.2319 58.018 79.4479 58.282C79.6699 58.54 79.7809 58.873 79.7809 59.281C79.7809 59.827 79.5799 60.25 79.1779 60.55C78.7819 60.85 78.2029 61 77.4409 61H74.5609V54.7H77.2699C77.9599 54.7 78.4969 54.841 78.8809 55.123C79.2709 55.399 79.4659 55.798 79.4659 56.32C79.4659 56.662 79.3789 56.953 79.2049 57.193C79.0369 57.433 78.7969 57.613 78.4849 57.733ZM75.4519 57.472H77.2069C77.6449 57.472 77.9779 57.385 78.2059 57.211C78.4399 57.037 78.5569 56.782 78.5569 56.446C78.5569 56.11 78.4399 55.855 78.2059 55.681C77.9719 55.501 77.6389 55.411 77.2069 55.411H75.4519V57.472ZM77.4229 60.289C78.3889 60.289 78.8719 59.929 78.8719 59.209C78.8719 58.849 78.7489 58.585 78.5029 58.417C78.2629 58.243 77.9029 58.156 77.4229 58.156H75.4519V60.289H77.4229ZM84.9795 59.425H81.6315L80.9385 61H80.0115L82.8645 54.7H83.7555L86.6175 61H85.6725L84.9795 59.425ZM84.6645 58.705L83.3055 55.618L81.9465 58.705H84.6645ZM92.1388 61.072C91.5088 61.072 90.9388 60.934 90.4288 60.658C89.9248 60.376 89.5288 59.992 89.2408 59.506C88.9528 59.014 88.8088 58.462 88.8088 57.85C88.8088 57.238 88.9528 56.689 89.2408 56.203C89.5288 55.711 89.9278 55.327 90.4378 55.051C90.9478 54.769 91.5178 54.628 92.1478 54.628C92.6398 54.628 93.0898 54.712 93.4978 54.88C93.9058 55.042 94.2538 55.285 94.5418 55.609L93.9568 56.176C93.4828 55.678 92.8918 55.429 92.1838 55.429C91.7158 55.429 91.2928 55.534 90.9148 55.744C90.5368 55.954 90.2398 56.245 90.0238 56.617C89.8138 56.983 89.7088 57.394 89.7088 57.85C89.7088 58.306 89.8138 58.72 90.0238 59.092C90.2398 59.458 90.5368 59.746 90.9148 59.956C91.2928 60.166 91.7158 60.271 92.1838 60.271C92.8858 60.271 93.4768 60.019 93.9568 59.515L94.5418 60.082C94.2538 60.406 93.9028 60.652 93.4888 60.82C93.0808 60.988 92.6308 61.072 92.1388 61.072ZM95.3818 54.7H96.2728V59.56L99.9988 54.7H100.827V61H99.9448V56.149L96.2098 61H95.3818V54.7ZM106.72 55.483H104.56V61H103.678V55.483H101.527V54.7H106.72V55.483ZM107.414 54.7H108.305V59.56L112.031 54.7H112.859V61H111.977V56.149L108.242 61H107.414V54.7Z" fill="#5C5C5C"/></svg>